<?xml version="1.0" standalone="no"?>
<!DOCTYPE svg PUBLIC "-//W3C//DTD SVG 20010904//EN"
 "http://www.w3.org/TR/2001/REC-SVG-20010904/DTD/svg10.dtd">
<svg version="1.0" xmlns="http://www.w3.org/2000/svg"
 width="256.000000pt" height="256.000000pt" viewBox="0 0 256.000000 256.000000"
 preserveAspectRatio="xMidYMid meet">
<metadata>
Created by potrace 1.11, written by Peter Selinger 2001-2013
</metadata>
<g transform="translate(0.000000,256.000000) scale(0.100000,-0.100000)"
fill="#000000" stroke="none">
<path d="M382 2364 c-107 -29 -204 -114 -256 -223 l-31 -66 -2 -665 c-3 -711
-4 -701 47 -800 47 -91 159 -176 265 -200 47 -11 1251 -15 1330 -5 114 15 243
115 298 233 l32 67 3 280 c1 154 -1 285 -5 291 -5 6 -18 14 -29 18 -17 5 -34
-6 -83 -55 l-61 -62 0 -211 c0 -183 -3 -216 -19 -251 -23 -51 -89 -111 -138
-124 -52 -15 -1254 -15 -1306 0 -50 14 -110 68 -136 124 -21 44 -21 56 -21
667 0 381 4 637 10 659 13 48 70 112 122 137 42 21 55 21 707 21 l664 0 42 45
c54 57 52 85 -8 112 -39 18 -84 19 -707 21 -558 1 -674 -1 -718 -13z"/>
<path d="M2120 2279 c-14 -5 -233 -218 -487 -472 l-463 -462 -192 192 c-106
105 -204 196 -217 203 -48 25 -89 5 -189 -93 -109 -107 -126 -135 -117 -186 5
-31 53 -83 323 -354 174 -175 328 -324 342 -332 14 -7 42 -12 64 -10 36 2 67
30 637 601 403 404 600 608 604 627 12 49 -5 80 -98 175 -118 121 -145 135
-207 111z"/>
</g>
</svg>
